SplineFontDB: 3.0
FontName: font4499
FullName: font4499
FamilyName: SVGFont
Weight: Regular
Copyright: 
Version: 
ItalicAngle: 0
UnderlinePosition: 0
UnderlineWidth: 0
Ascent: 765
Descent: 235
InvalidEm: 0
LayerCount: 2
Layer: 0 0 "Back" 1
Layer: 1 0 "Fore" 0
XUID: [1021 197 757643960 3191421]
OS2Version: 0
OS2_WeightWidthSlopeOnly: 0
OS2_UseTypoMetrics: 0
CreationTime: 1438784012
ModificationTime: 1438977016
PfmFamily: 17
TTFWeight: 400
TTFWidth: 5
LineGap: 90
VLineGap: 90
OS2TypoAscent: 0
OS2TypoAOffset: 1
OS2TypoDescent: 0
OS2TypoDOffset: 1
OS2TypoLinegap: 90
OS2WinAscent: 0
OS2WinAOffset: 1
OS2WinDescent: 0
OS2WinDOffset: 1
HheadAscent: 0
HheadAOffset: 1
HheadDescent: 0
HheadDOffset: 1
OS2CapHeight: 0
OS2XHeight: 0
OS2Vendor: 'PfEd'
MarkAttachClasses: 1
DEI: 91125
Encoding: ISO8859-1
UnicodeInterp: none
NameList: AGL For New Fonts
DisplaySize: -48
AntiAlias: 1
FitToEm: 1
WinInfo: 0 18 10
BeginPrivate: 0
EndPrivate
Grid
-1000 810.400024414 m 0
 2000 810.400024414 l 1024
-1000 252 m 0
 2000 252 l 1024
321.946777344 1300 m 0
 321.946777344 -700 l 1024
-1000 712 m 0
 2000 712 l 1024
  Named: "caps"
-1000 515 m 0
 2000 515 l 1024
-1000 666 m 0
 2000 666 l 1024
-1000 874 m 0
 2000 874 l 1024
-997 511 m 4
 2003 511 l 1028
  Named: "x height"
EndSplineSet
BeginChars: 257 32

StartChar: n
Encoding: 110 110 0
Width: 618
Flags: HW
HStem: 0 21G<137.08 160.25> 0.0703125 21G<433.706 457.241> 352.737 162.263<282.67 419.749>
VStem: 14.2164 226.224<58.7778 152.944 372.09 479.943> 24.155 216.285<40.3229 418.738> 147.003 94<274.07 347.245> 315.836 214.166<92.0054 351.809>
LayerCount: 2
Back
SplineSet
318.63671875 251.100585938 m 4
 318.63671875 313.576171875 310.502929688 380.200195312 292.1171875 380.431640625 c 4
 273.73046875 380.663085938 262.63671875 314.03515625 262.63671875 252.41796875 c 4
 262.63671875 194.614257812 271.852539062 130 291.30859375 130 c 4
 310.763671875 130 318.63671875 192.493164062 318.63671875 251.100585938 c 4
292.352539062 -4.228515625 m 4
 125.13671875 -4.228515625 -10.4697265625 88 -10.4697265625 252 c 4
 -10.4697265625 416.000976562 118.844726562 515 291.985351562 515 c 4
 465.125976562 515 591.63671875 416.000976562 591.63671875 252 c 4
 591.63671875 88 459.569335938 -4.228515625 292.352539062 -4.228515625 c 4
EndSplineSet
Fore
Refer: 18 152 N 1 0 0 1 -29.7172 0 2
Refer: 10 305 N 1 0 0 1 -35.7073 0 2
EndChar

StartChar: e
Encoding: 101 101 1
Width: 584
Flags: HW
HStem: -4.22852 170.229<251.782 411.186> 233 80.333<123.354 312.374> 397.713 117.287<254.711 313.792>
VStem: 315.85 226.977<314.039 396.902>
LayerCount: 2
Back
Fore
SplineSet
298.233398438 -4.228515625 m 4
 132.81640625 -4.228515625 1.6328125 88 1.6328125 251.811523438 c 0
 1.6328125 416.000976562 125.048828125 515 296.1328125 515 c 0
 473.547851562 515 542.827148438 450.5 542.827148438 360 c 0
 542.827148438 299.569335938 486.239257812 233 371.739257812 233 c 0
 82.7392578125 230.5 l 0
 123.239257812 310 l 1
 123.239257812 310 281.875976562 313.333007812 292.18359375 313.333007812 c 0
 300.965820312 313.333007812 306.026367188 317.904296875 309.829101562 327.286132812 c 0
 313.6328125 336.666992188 315.850585938 350.102539062 315.850585938 366.669921875 c 0
 315.850585938 385.25 309.658203125 397.712890625 287.658203125 397.712890625 c 0
 272.276367188 397.712890625 256.400390625 389.731445312 242.299804688 357.999023438 c 0
 232.862304688 326.266601562 231.516601562 303.900390625 227.759765625 246.46875 c 0
 223.55078125 185 270.663085938 166 339.239257812 166 c 4
 373.271484375 166 408.239257812 170 435.658203125 178.05078125 c 4
 470.29296875 188.219726562 483.981445312 206.912109375 502.811523438 206.912109375 c 4
 537.739257812 206.912109375 554.739257812 187 554.739257812 166 c 4
 554.739257812 117.5 464.748046875 -4.228515625 298.233398438 -4.228515625 c 4
EndSplineSet
EndChar

StartChar: p
Encoding: 112 112 2
Width: 674
Flags: HW
LayerCount: 2
Back
SplineSet
306.223632812 -54 m 4
 306.223632812 -77.931640625 315.313476562 -97 323.471679688 -109.923828125 c 5
 337.04296875 -131.423828125 310.884765625 -167.940429688 290.8671875 -177.857421875 c 4
 263.430664062 -191.44921875 227.271484375 -200 191.938476562 -200 c 4
 168.979492188 -200 123.716796875 -201.413085938 96.4384765625 -183 c 4
 69.771484375 -165 58.0048828125 -143.638671875 53.4384765625 -107.33203125 c 4
 48.9296875 -68.8740234375 47.314453125 -27.5859375 49.9384765625 10.5 c 4
 52.2939453125 42.36328125 52.3203125 81.03125 52.3134765625 125 c 4
 52.3056640625 178.01953125 54.314453125 222 52.205078125 299.59375 c 4
 51.24609375 334.865234375 40 395.834960938 40 419.892578125 c 4
 40 442.749023438 42.7177734375 457.655273438 58.3134765625 475 c 4
 74.658203125 493.177734375 131.8515625 510.841796875 181.313476562 511 c 4
 242.313476562 511.1953125 293.953125 501.299804688 299.284179688 464.205078125 c 4
 311.313476562 379.1875 306.223632812 -15.0283203125 306.223632812 -54 c 4
253.849609375 393.5 m 0
 273.349609375 417.5 309.905273438 450.768554688 355.349609375 476.5 c 0
 393.3203125 498 425.270507812 515 480.68359375 515 c 0
 532.682617188 515 560.349609375 494.5 586.349609375 469 c 0
 616.209960938 439.713867188 634.498046875 371 634.498046875 293 c 0
 634.498046875 194.954101562 619.813476562 127.041992188 602.95703125 90 c 0
 580.45703125 40.5556640625 547.95703125 1 434.95703125 1 c 0
 378.650390625 1 271.358398438 1 240.95703125 1 c 0
 240.95703125 94 l 0
 240.95703125 94 300.15625 94 333.478515625 94 c 0
 354.979492188 94 363.54296875 106.684570312 363.54296875 126.709960938 c 0
 363.54296875 170.763671875 364.41796875 233.173828125 364.313476562 262.666015625 c 0
 364.208984375 292.04296875 363.818359375 298.528320312 362.479492188 309 c 0
 360.646484375 323.333007812 355.376953125 343.5 337.349609375 343.5 c 0
 324.349609375 343.5 314.349609375 336 309.849609375 321.5 c 0
 306.09375 309.3984375 306.349609375 290.75 306.349609375 271.75 c 1
 215.849609375 271.5 l 1
 215.795898438 322.266601562 234.420898438 369.587890625 253.849609375 393.5 c 0
EndSplineSet
Fore
Refer: 24 155 N 1 0 0 1 120 0 2
Refer: 16 150 N 1 0 0 1 4 -200 2
Refer: 9 129 N 1 0 0 1 5 -201 2
EndChar

StartChar: h
Encoding: 104 104 3
Width: 668
Flags: HW
HStem: 0.0703125 21G<476.37 499.905 476.37 499.905 476.37 499.905> 0.479492 711.019<106.049 260.755 106.049 260.755 106.049 260.755> 352.737 162.263<325.333 462.413 325.333 462.413 325.333 462.413>
VStem: 65.1553 217.42<41.0064 618.645 41.0064 618.645 41.0064 618.645> 189.667 94<274.07 347.245 274.07 347.245 274.07 347.245> 358.5 214.166<92.0054 351.809 92.0054 351.809 92.0054 351.809>
LayerCount: 2
Back
SplineSet
48.3623046875 92.66796875 m 0
 45 123 44.0796462658 179.770798762 44.8623046875 202.5 c 0
 46.4140170589 247.563314693 50 321.804605023 50 385 c 4
 50 459.354169953 34.923828125 572.482310255 34.923828125 619.34765625 c 0
 34.923828125 642.844726562 37.640625 658.168945312 53.2373046875 676 c 1
 71.5 689.955078125 103.5 710.907226562 169.118164062 710.907226562 c 0
 252.5 710.907226562 293.28515625 699.455078125 293.28515625 651.907226562 c 0
 293.28515625 580.881971437 294.284179688 447.665114126 294.284179688 268.333007812 c 0
 294.284179688 205.513671875 295.618065721 182.666980247 300.0703125 146 c 0
 302.955078125 122.2421875 309.160434295 103.000175513 317.318359375 90.076171875 c 0
 330.889648438 68.576171875 304.519589685 32.4764505046 284.713867188 22.142578125 c 0
 258.6640625 8.55078125 224.333007812 0 190.78515625 0 c 0
 167.10546875 0 118.161966823 -1.81661744196 90.28515625 17 c 0
 63.6181640625 35 51.724609375 62.3359375 48.3623046875 92.66796875 c 0
357.885742188 92.66796875 m 0
 343.75 175.272460938 354.687046312 312.732420583 354.71875 325.666015625 c 0
 354.759765625 342.3984375 347.218752036 352.99989198 329.552734375 352.666992188 c 0
 304.055664062 352.186523438 292.866210938 328.147460938 293.885742188 274 c 1
 253.368164062 272.400390625 235.541015625 272.62890625 199.885742188 270 c 1
 199.885742188 332 225.261177356 404.971970218 312.010742188 460 c 0
 349.4609375 483.755859375 406.758792269 516.062694946 475.631835938 514.9296875 c 0
 556.484375 513.599609375 600.363258545 485.932616522 601.885742188 434 c 0
 602.884765625 399.922851562 602.884765625 354.4140625 602.884765625 268.333007812 c 0
 602.884765625 205.513671875 604.218651658 182.666980247 608.670898438 146 c 0
 611.555664062 122.2421875 617.761020233 103.000175513 625.918945312 90.076171875 c 0
 639.490234375 68.576171875 613.120175623 32.4764505046 593.314453125 22.142578125 c 0
 567.264648438 8.55078125 532.93359375 0 499.385742188 0 c 0
 475.706054688 0 428.762552761 -1.81661744196 400.885742188 17 c 0
 374.21875 35 363.611075102 59.211061308 357.885742188 92.66796875 c 0
EndSplineSet
Fore
Refer: 16 150 N 1 0 0 1 0 0 2
Refer: 18 152 S 1 0 0 1 14.9468 0 2
EndChar

StartChar: m
Encoding: 109 109 4
Width: 845
Flags: HW
HStem: 0 21G<124.12 147.29> 0.0703125 21G<415.703 439.238 693.703 717.238> 352.737 162.263<264.667 401.746 542.667 679.746>
VStem: 1.25713 226.224<58.7778 152.944 372.09 479.943> 11.1956 216.285<40.3229 418.738> 129 94<274.07 347.245> 297.833 214.166<92.0054 351.809> 407 94<274.07 347.245> 575.833 214.166<92.0054 351.809>
LayerCount: 2
Back
SplineSet
603.627929688 92.66796875 m 4
 589.4921875 175.272460938 600.440429688 312.732421875 600.4609375 325.666015625 c 4
 600.487304688 342.3984375 595.646484375 352.88671875 584.294921875 352.666992188 c 4
 559.512695312 352.186523438 548.637695312 328.147460938 549.627929688 274 c 5
 509.110351562 272.400390625 491.283203125 272.62890625 455.627929688 270 c 5
 455.627929688 332 485.793945312 408.688476562 567.752929688 460 c 4
 603.650390625 482.473632812 659.390625 515.002929688 721.374023438 514.9296875 c 4
 799.03515625 514.837890625 841.10546875 485.930664062 842.627929688 434 c 4
 843.626953125 399.922851562 843.626953125 354.4140625 843.626953125 268.333007812 c 4
 843.626953125 205.513671875 844.9609375 182.666992188 849.413085938 146 c 4
 852.297851562 122.2421875 858.50390625 103 866.661132812 90.076171875 c 4
 880.232421875 68.576171875 853.622070312 32.9248046875 834.056640625 22.142578125 c 4
 809.393554688 8.55078125 776.890625 0 745.127929688 0 c 4
 721.448242188 0 674.504882812 -1.81640625 646.627929688 17 c 4
 619.9609375 35 609.353515625 59.2109375 603.627929688 92.66796875 c 4
254.48046875 146 m 4
 254.48046875 122.068359375 263.5703125 103 271.728515625 90.076171875 c 5
 285.299804688 68.576171875 259.142578125 32.0595703125 239.124023438 22.142578125 c 4
 211.6875 8.55078125 175.528320312 0 140.1953125 0 c 4
 117.237304688 0 71.974609375 -1.4130859375 44.6953125 17 c 4
 18.0283203125 35 6.2626953125 56.361328125 1.6953125 92.66796875 c 4
 -2.8134765625 128.514648438 -2.453125 179.766601562 -1.8046875 202.5 c 4
 -1.1201171875 226.474609375 1.7705078125 266.091796875 0.4619140625 299.59375 c 4
 -0.9150390625 334.8515625 -11.7431640625 395.834960938 -11.7431640625 419.892578125 c 4
 -11.7431640625 442.749023438 -9.025390625 457.655273438 6.5703125 475 c 4
 22.9150390625 493.177734375 80.1083984375 510.841796875 129.5703125 511 c 4
 190.5703125 511.1953125 239.126953125 500.723632812 247.541015625 464.205078125 c 4
 259.5703125 412 254.48046875 169.930664062 254.48046875 146 c 4
309.5703125 92.66796875 m 4
 295.434570312 175.272460938 306.3828125 312.732421875 306.403320312 325.666015625 c 4
 306.4296875 342.3984375 301.588867188 352.88671875 290.237304688 352.666992188 c 4
 265.455078125 352.186523438 254.580078125 328.147460938 255.5703125 274 c 5
 215.052734375 272.400390625 197.225585938 272.62890625 161.5703125 270 c 5
 161.5703125 332 191.736328125 408.688476562 273.6953125 460 c 4
 309.592773438 482.473632812 365.333007812 515.002929688 427.31640625 514.9296875 c 4
 504.977539062 514.837890625 547.047851562 485.930664062 548.5703125 434 c 4
 549.569335938 399.922851562 549.569335938 354.4140625 549.569335938 268.333007812 c 4
 549.569335938 205.513671875 550.903320312 182.666992188 555.35546875 146 c 4
 558.240234375 122.2421875 564.446289062 103 572.603515625 90.076171875 c 4
 586.174804688 68.576171875 559.564453125 32.9248046875 539.999023438 22.142578125 c 4
 515.3359375 8.55078125 482.833007812 0 451.0703125 0 c 4
 427.390625 0 380.447265625 -1.81640625 352.5703125 17 c 4
 325.903320312 35 315.295898438 59.2109375 309.5703125 92.66796875 c 4
EndSplineSet
Fore
Refer: 18 152 S 1 0 0 1 251.28 0 2
Refer: 18 152 N 1 0 0 1 -41.7199 0 2
Refer: 10 305 N 1 0 0 1 -48.6667 0 2
EndChar

StartChar: i
Encoding: 105 105 5
Width: 362
Flags: HW
LayerCount: 2
Back
SplineSet
296.147460938 146 m 4
 296.147460938 122.068359375 305.237304688 103 313.395507812 90.076171875 c 5
 326.966796875 68.576171875 300.80859375 32.0595703125 280.791015625 22.142578125 c 4
 253.354492188 8.55078125 217.1953125 0 181.862304688 0 c 4
 158.904296875 0 113.641601562 -1.4130859375 86.3623046875 17 c 4
 59.6953125 35 47.9287109375 56.361328125 43.3623046875 92.66796875 c 4
 38.853515625 128.514648438 39.212890625 179.766601562 39.8623046875 202.5 c 4
 40.546875 226.474609375 43.4375 266.091796875 42.12890625 299.59375 c 4
 40.751953125 334.8515625 29.923828125 395.834960938 29.923828125 419.892578125 c 4
 29.923828125 443.389797786 32.640625 458.71394053 48.2373046875 476.544921875 c 4
 64.5820312499 494.72265625 121.775390625 512.38671875 171.237304688 512.544921875 c 4
 232.237304688 512.746682565 280.79296875 501.929283163 289.208007812 464.205078125 c 4
 301.237304688 412 296.147460938 169.930664062 296.147460938 146 c 4
EndSplineSet
Fore
SplineSet
292.518554688 640 m 0
 292.518554688 577.838876919 231.265603757 551.60546875 170.985351562 551.60546875 c 0
 99.4387334391 551.60546875 33.5625 568.907094381 33.5625 634.2734375 c 0
 33.5625 690.379423029 85.693512995 716.802734375 164.118164062 716.802734375 c 0
 241.475317876 716.802734375 292.518554688 686.894201562 292.518554688 640 c 0
EndSplineSet
Refer: 10 305 N 1 0 0 1 0 0 2
EndChar

StartChar: b
Encoding: 98 98 6
Width: 660
Flags: HW
HStem: -4.72787 134.229<310.84 480.637 310.84 480.637> 0.479492 711.019<96.9537 251.659 96.9537 251.659> 379.932 134.568<276.63 360.549 276.63 360.549>
VStem: 56.06 217.42<41.0064 618.645 41.0064 618.645> 152.798 102<160.222 342.121 160.222 342.121> 388.798 235.625<158.614 348.551 158.614 348.551>
LayerCount: 2
Back
SplineSet
293.127929688 565.938476562 m 4
 293.127929688 589.870117188 302.217773438 608.938476562 310.375976562 621.862304688 c 5
 323.947265625 643.362304688 297.7890625 679.87890625 277.771484375 689.795898438 c 4
 250.334960938 703.387695312 214.17578125 711.938476562 178.842773438 711.938476562 c 4
 155.883789062 711.938476562 110.62109375 713.3515625 83.3427734375 694.938476562 c 4
 56.67578125 676.938476562 44.9091796875 655.577148438 40.3427734375 619.270507812 c 4
 35.833984375 580.8125 34.21875 539.524414062 36.8427734375 501.438476562 c 4
 39.1982421875 469.575195312 39.224609375 430.907226562 39.2177734375 386.938476562 c 4
 39.2099609375 333.918945312 41.21875 289.938476562 39.109375 212.344726562 c 4
 38.150390625 177.073242188 26.904296875 116.103515625 26.904296875 92.0458984375 c 4
 26.904296875 69.189453125 29.6220703125 54.283203125 45.2177734375 36.9384765625 c 4
 61.5625 18.7607421875 118.755859375 1.0966796875 168.217773438 0.9384765625 c 4
 229.217773438 0.7431640625 280.857421875 10.638671875 286.188476562 47.7333984375 c 4
 298.217773438 132.750976562 293.127929688 526.966796875 293.127929688 565.938476562 c 4
202.255859375 240.438476562 m 5
 202.255859375 95.0400390625 354.904296875 -3.984375 476.291015625 -3.0615234375 c 4
 548.90234375 -2.509765625 620.904296875 48.9384765625 620.904296875 249.938476562 c 4
 620.904296875 450.938476562 541.904296875 511.938476562 455.403320312 511 c 4
 368.903320312 510.061523438 257.764648438 473.938476562 227.36328125 473.938476562 c 4
 227.36328125 392.938476562 l 29
 227.36328125 392.938476562 286.5625 392.938476562 313.973632812 392.938476562 c 4
 341.385742188 392.938476562 349.94921875 380.25390625 349.94921875 348.213867188 c 4
 349.94921875 322.640625 350.802734375 272.825195312 350.719726562 249.330078125 c 4
 350.615234375 219.895507812 350.224609375 213.41015625 348.638671875 201.0078125 c 4
 347.052734375 188.60546875 341.783203125 168.438476562 326.26953125 168.438476562 c 4
 310.755859375 168.438476562 300.755859375 175.938476562 296.627929688 189.239257812 c 4
 292.5 202.540039062 292.755859375 221.188476562 292.755859375 240.188476562 c 5
 292.755859375 240.188476562 256.904296875 240.438476562 202.255859375 240.438476562 c 5
EndSplineSet
Fore
Refer: 24 155 S 1 0 0 1 122.905 -0.499359 2
Refer: 16 150 S 1 0 0 1 -9.09527 0 2
EndChar

StartChar: u
Encoding: 117 117 7
Width: 608
Flags: HW
HStem: 0 21G<424.74 447.91 424.74 447.91> 0 162.263<129.83 271.909 129.83 271.909>
VStem: 13.3508 225.392<165.358 344.32 165.358 344.32 383.599 479.943 383.599 479.943> 25.5764 213.166<163.427 489.816 163.427 489.816> 301.877 226.224<58.7778 152.944 58.7778 152.944 372.09 479.943 372.09 479.943> 311.815 216.285<40.3229 418.738 40.3229 418.738> 314.285 95.291<171.704 240.931 171.704 240.931>
LayerCount: 2
Back
SplineSet
310.665039062 368.9296875 m 4
 310.665039062 392.861328125 301.575195312 411.9296875 293.416992188 424.853515625 c 5
 279.845703125 446.353515625 306.00390625 482.870117188 326.021484375 492.787109375 c 4
 353.458007812 506.37890625 389.6171875 514.9296875 424.950195312 514.9296875 c 4
 447.908203125 514.9296875 493.170898438 516.342773438 520.450195312 497.9296875 c 4
 547.1171875 479.9296875 558.883789062 458.568359375 563.450195312 422.26171875 c 4
 567.958984375 386.415039062 567.599609375 335.163085938 566.950195312 312.4296875 c 4
 566.265625 288.455078125 563.375 248.837890625 564.68359375 215.3359375 c 4
 566.060546875 180.078125 576.888671875 119.094726562 576.888671875 95.037109375 c 4
 576.888671875 71.5400390625 574.171875 56.2158203125 558.575195312 38.384765625 c 4
 542.23046875 20.20703125 485.037109375 2.54296875 435.575195312 2.384765625 c 4
 374.575195312 2.1826171875 326.01953125 13 317.604492188 50.724609375 c 4
 305.575195312 102.9296875 310.665039062 344.999023438 310.665039062 368.9296875 c 4
245.575195312 422.26171875 m 4
 259.7109375 339.657226562 248.774414062 202.197265625 248.7421875 189.263671875 c 4
 248.701171875 172.53125 256.2421875 161.9296875 273.908203125 162.262695312 c 4
 299.405273438 162.743164062 310.594726562 186.782226562 309.575195312 240.9296875 c 5
 350.092773438 242.529296875 367.919921875 242.30078125 403.575195312 244.9296875 c 5
 403.575195312 182.9296875 378.200195312 109.95703125 291.450195312 54.9296875 c 4
 254 31.173828125 196.702148438 -1.1328125 127.829101562 0 c 4
 46.9765625 1.330078125 3.09765625 28.9970703125 1.5751953125 80.9296875 c 4
 0.576171875 115.006835938 0.576171875 160.515625 0.576171875 246.596679688 c 4
 0.576171875 309.416015625 -0.7578125 332.262695312 -5.2099609375 368.9296875 c 4
 -8.0947265625 392.6875 -14.2998046875 411.9296875 -22.4580078125 424.853515625 c 4
 -36.029296875 446.353515625 -9.6591796875 482.453125 10.146484375 492.787109375 c 4
 36.1962890625 506.37890625 70.52734375 514.9296875 104.075195312 514.9296875 c 4
 127.754882812 514.9296875 174.698242188 516.74609375 202.575195312 497.9296875 c 4
 229.2421875 479.9296875 239.850585938 455.71875 245.575195312 422.26171875 c 4
EndSplineSet
Fore
Refer: 25 149 S 1 0 0 1 -17.0476 0 2
Refer: 10 305 N 1 0 0 1 260.953 0 2
EndChar

StartChar: dotlessi
Encoding: 256 305 10
Width: 362
Flags: HW
HStem: 0 21G<172.787 195.957>
VStem: 49.9238 226.224<58.7778 152.944 372.09 479.943> 59.8623 216.285<40.3229 418.738>
LayerCount: 2
Back
Fore
SplineSet
294.904296875 121.359375 m 4
 294.904296875 28.1799192108 237.619140625 -0.4873046875 184.400390625 0.146484375 c 4
 57.6767578125 1.654296875 58.9595510494 89.0205129829 58.556640625 209.048828125 c 4
 58.193359375 317.271484375 50.2998046875 271.732421875 49.65625 401.529296875 c 4
 49.349609375 463.530273438 90.3916015625 513.28125 155.633789062 512.50390625 c 4
 226.999023438 511.654296875 281.422851562 491.393871604 281.422851562 410 c 4
 281.422851562 283.748718262 294.904296875 203.748718262 294.904296875 121.359375 c 4
EndSplineSet
EndChar

StartChar: o
Encoding: 111 111 11
Width: 566
Flags: HW
HStem: -4.22852 114.229<206.465 268.924> 400.432 114.568<206.962 268.439>
VStem: -54.6202 233.106<147.492 358.536> 294.487 233<147.057 362.582>
LayerCount: 2
Back
Refer: 10 305 S 1 0 0 1 -101.504 0 2
Refer: 18 152 S 1 0 0 1 -105.514 0 2
Refer: 10 305 N 1 0 0 1 -101.504 0 2
Refer: 18 152 N 1 0 0 1 -105.514 0 2
Fore
SplineSet
294.486328125 251.100585938 m 4
 294.486328125 323.237304688 277.151367188 400.1640625 237.966796875 400.431640625 c 0
 200.869140625 400.69921875 178.486328125 323.662109375 178.486328125 252.41796875 c 0
 178.486328125 185.170898438 197.344726562 110 237.158203125 110 c 0
 277.969726562 110 294.486328125 182.814453125 294.486328125 251.100585938 c 4
238.202148438 -4.228515625 m 0
 76.5078125 -4.228515625 -54.6201171875 88 -54.6201171875 252 c 0
 -54.6201171875 416.000976562 70.4189453125 515 237.834960938 515 c 0
 405.197265625 515 527.486328125 416.000976562 527.486328125 252 c 0
 527.486328125 88 399.831054688 -4.228515625 238.202148438 -4.228515625 c 0
EndSplineSet
EndChar

StartChar: g
Encoding: 103 103 15
Width: 614
Flags: HW
HStem: -4.22852 134.229<121.143 290.94> 380.432 134.568<241.231 325.15>
VStem: -22.6422 235.625<159.114 349.098> 346.983 102<160.636 343.173>
LayerCount: 2
Back
SplineSet
129.954101562 -312.389648438 m 4
 58.162109375 -312.389648438 23.0166015625 -263.33984375 23.0166015625 -201.845703125 c 4
 23.0166015625 -178.919921875 25.8427734375 -151.84765625 35.46484375 -132 c 4
 47.015625 -108.172851562 77.931640625 -77.0888671875 96.2373046875 -85.986328125 c 5
 114.543945312 -94.884765625 174.415039062 -98.33984375 201.954101562 -98.33984375 c 4
 269.954101562 -98.33984375 363.46484375 -88 363.46484375 36 c 4
 363.46484375 78 359.831054688 397.447265625 359.831054688 440.723632812 c 4
 359.831054688 484 401.685546875 511.479492188 455.381835938 511.498046875 c 4
 502.076171875 511.514648438 551.275390625 493.657226562 564.77734375 475.896484375 c 4
 579.232421875 456.881835938 583.46484375 443.228515625 583.46484375 419.771484375 c 4
 583.46484375 396.314453125 572.21875 283.33984375 570.684570312 226.907226562 c 4
 569.150390625 170.474609375 571.038085938 100.494140625 571.15234375 52 c 4
 571.623046875 -148.622070312 545.51953125 -174.22265625 505.46484375 -220 c 4
 463.46484375 -268 365.954101562 -312.389648438 129.954101562 -312.389648438 c 4
EndSplineSet
Refer: 20 154 S 1 0 0 1 -28.5358 0 2
Fore
SplineSet
566.737304688 167 m 25
 566.737304688 -124 499.517578125 -237.033203125 283.46484375 -237.033203125 c 0
 146.517578125 -237.033203125 6.90625 -140 6.90625 -66.8046875 c 0
 6.90625 -45.8046875 35.90625 -25.892578125 70.833984375 -25.892578125 c 0
 89.6640625 -25.892578125 99.3525390625 -44.583984375 133.987304688 -54.75390625 c 0
 161.40625 -62.8046875 197.517578125 -68 244.46484375 -68 c 0
 308.46484375 -68 344.412109375 -31 344.997070312 85.0927734375 c 0
 345.241210938 133.5859375 346.999023438 221.567382812 345.46484375 278 c 0
 343.930664062 334.432617188 332.684570312 395.40234375 332.684570312 418.859375 c 0
 332.684570312 442.31640625 335.40234375 457.22265625 351.372070312 474.984375 c 0
 364.874023438 492.745117188 414.073242188 510.6015625 460.767578125 510.5859375 c 0
 514.463867188 510.567382812 556.318359375 486 556.318359375 439.811523438 c 0
 556.318359375 393.623046875 562.673828125 273.396484375 566.737304688 167 c 25
EndSplineSet
Refer: 20 154 N 1 0 0 1 -52.5358 0 2
EndChar

StartChar: uni0096
Encoding: 150 150 16
Width: 382
Flags: HW
HStem: 0.479492 711.019<106.049 260.755>
VStem: 65.1553 217.42<41.0064 618.645>
LayerCount: 2
Back
Fore
SplineSet
294.904296875 121.359375 m 4
 293.794921875 28.1865234375 237.619140625 -0.4873046875 184.400390625 0.146484375 c 4
 57.6767578125 1.654296875 58.9580078125 89.0205078125 58.556640625 209.048828125 c 4
 58.193359375 317.271484375 50.2998046875 491.2890625 49.65625 621.0859375 c 4
 49.349609375 683.086914062 90.3916015625 732.837890625 155.633789062 732.060546875 c 4
 226.999023438 731.2109375 273.873046875 710.599609375 281.422851562 629.556640625 c 4
 293.436523438 500.58984375 297.241210938 317.657226562 294.904296875 121.359375 c 4
EndSplineSet
EndChar

StartChar: uni0097
Encoding: 151 151 17
Width: 674
Flags: HW
LayerCount: 2
Back
Fore
SplineSet
215.3515625 271.5 m 1
 215.351573566 416.898537362 360.758384393 515.922675315 476.38671875 515 c 4
 547.491584663 514.448073981 618 463 618 262 c 4
 618 61.0001796042 540.431894093 0.000234111017335 455.499023438 0.9384765625 c 4
 373.929591666 1.87671394691 269.127212002 38 240.458984375 38 c 0
 240.458984375 119 l 1
 240.458984375 119 299.658203125 119 327.069335938 119 c 0
 365.910908652 119 378.044921875 131.684570312 378.044921875 163.724609375 c 4
 378.044921875 189.298124053 378.898835439 239.113699819 378.815429688 262.608398438 c 4
 378.7109375 292.04296875 378.3203125 298.528320312 376.734375 310.930664062 c 4
 374.439452954 323.333007812 366.814207045 343.5 344.365234375 343.5 c 0
 326.234687727 343.5 314.547869289 336 309.723632812 322.69921875 c 0
 305.595703125 309.3984375 305.8515625 290.75 305.8515625 271.75 c 1
 305.8515625 271.75 270 271.5 215.3515625 271.5 c 1
EndSplineSet
EndChar

StartChar: uni0098
Encoding: 152 152 18
Width: 642
Flags: HW
HStem: 0.0703125 21G<473.423 496.958> 352.737 162.263<322.387 459.466>
VStem: 186.72 94<274.07 347.245> 355.553 214.166<92.0054 351.809>
LayerCount: 2
Back
Fore
SplineSet
342.116210938 316.895507812 m 4
 342.116210938 331.304413491 337.231445312 344.265625 313.950195312 343.896484375 c 4
 283.657226562 343.416015625 280.094726562 315 280.094726562 270.069335938 c 5
 239.020507812 268.469726562 220.948242188 268.698242188 184.803710938 266.0703125 c 5
 184.803710938 328.0703125 197.321289062 414.4296875 284.94921875 468.048828125 c 4
 323.314453125 491.8046875 393.993155567 512.174294375 464.549804688 511 c 4
 530.677734375 509.899414062 566.55859375 465.670898438 567.803710938 413.73828125 c 4
 572.115234375 285.961914062 577 232 575.075195312 95.896484375 c 4
 574.283316379 39.9024879126 535.673828125 0 470.426757812 0 c 4
 399.056640625 0 343.426757812 19.6064453125 343.426757812 101 c 4
 343.426757812 160 342.116210938 233.896881104 342.116210938 316.895507812 c 4
EndSplineSet
EndChar

StartChar: uni0099
Encoding: 153 153 19
Width: 662
Flags: HW
LayerCount: 2
Back
Fore
SplineSet
309.71875 194.104492188 m 4
 309.71875 179.6953125 314.603515625 166.734375 337.884765625 167.103515625 c 4
 368.177734375 167.583984375 371.740234375 196 371.740234375 240.930664062 c 5
 412.814453125 242.530273438 430.88671875 242.301757812 467.03125 244.9296875 c 5
 467.03125 182.9296875 454.513671875 96.5703125 366.885742188 42.951171875 c 4
 328.520507812 19.1953125 257.841796875 -1.173828125 187.28515625 0 c 4
 121.157226562 1.1005859375 85.2763671875 45.3291015625 84.03125 97.26171875 c 4
 79.7197265625 225.038085938 74.8349609375 279 76.759765625 415.103515625 c 4
 77.5517578125 471.09765625 116.161132812 511 181.408203125 511 c 4
 252.778320312 511 308.408203125 491.393554688 308.408203125 410 c 4
 308.408203125 351 309.71875 277.103515625 309.71875 194.104492188 c 4
EndSplineSet
EndChar

StartChar: uni009A
Encoding: 154 154 20
Width: 668
Flags: W
HStem: -4.22852 134.229<173.679 343.476> 380.432 134.568<293.767 377.686>
VStem: 29.8936 235.625<159.114 349.098> 399.519 102<160.636 343.173>
LayerCount: 2
Back
Fore
SplineSet
399.518554688 252 m 0
 399.518554688 314.041108536 377.685668223 380.139065584 328.327148438 380.431640625 c 0
 289.153960312 380.663841614 265.518554688 313.818369596 265.518554688 252 c 0
 265.518554688 194.393646894 285.446824442 130 327.518554688 130 c 0
 378.775844567 130 399.518554688 192.957300798 399.518554688 252 c 0
228.518554688 -4.228515625 m 0
 118.839557864 -4.228515625 29.8935546875 88 29.8935546875 252 c 0
 29.8935546875 416.000976562 114.658541145 515 228.151367188 515 c 0
 386.104812027 515 501.518554688 359.745644457 501.518554688 261.385742188 c 0
 501.518554688 91.3783635201 381.049789698 -4.228515625 228.518554688 -4.228515625 c 0
EndSplineSet
EndChar

StartChar: grave
Encoding: 96 96 22
Width: 613
Flags: HW
LayerCount: 2
Back
Fore
SplineSet
-420 -60 m 0
 -454.032226562 -60 -489 -56 -516.418945312 -47.94921875 c 0
 -551.053710938 -37.7802734375 -564.7421875 -19.087890625 -583.572265625 -19.087890625 c 0
 -618.5 -19.087890625 -635.5 -39 -635.5 -60 c 0
 -635.5 -108.5 -545.508789062 -230.228515625 -378.994140625 -230.228515625 c 1024
EndSplineSet
EndChar

StartChar: r
Encoding: 114 114 23
Width: 544
Flags: HW
HStem: 0 21G<134.171 157.341 134.171 157.341> 352.737 162.263<280.771 407.384 280.771 407.384>
VStem: 11.3072 226.224<58.7778 152.944 58.7778 152.944 372.09 479.943 372.09 479.943> 21.2457 216.285<40.3229 418.738 40.3229 418.738> 145.104 94<274.07 347.502 274.07 347.502>
LayerCount: 2
Back
SplineSet
337.748046875 92.73828125 m 4
 323.612304688 175.342773438 334.54296875 312.802734375 334.581054688 325.736328125 c 4
 334.634765625 342.46875 324.696289062 353.086914062 301.415039062 352.737304688 c 4
 271.62890625 352.256835938 258.556640625 328.217773438 259.748046875 274.0703125 c 5
 219.23046875 272.470703125 201.403320312 272.69921875 165.748046875 270.0703125 c 5
 165.748046875 332.0703125 196.162109375 399.515625 282.873046875 460.0703125 c 4
 318.4921875 483.826171875 372.990234375 516.22265625 438.494140625 515 c 4
 508.459960938 513.669921875 546.182617188 485.99609375 547.748046875 434.0703125 c 4
 548.747070312 399.993164062 548.747070312 354.484375 548.747070312 268.403320312 c 4
 548.747070312 205.583984375 550.081054688 182.737304688 554.533203125 146.0703125 c 4
 557.41796875 122.3125 563.623046875 103.0703125 571.78125 90.146484375 c 4
 585.352539062 68.646484375 557.796875 34.556640625 539.176757812 22.212890625 c 4
 517.841796875 8.62109375 489.724609375 0.0703125 462.248046875 0.0703125 c 4
 442.655273438 0.0703125 405.801757812 0.7822265625 380.748046875 17.0703125 c 4
 354.081054688 35.0703125 343.473632812 59.28125 337.748046875 92.73828125 c 4
EndSplineSet
Refer: 18 152 N 1 0 0 1 -26.9712 0 2
Refer: 10 305 N 1 0 0 1 -22.9613 0 2
Refer: 18 152 N 1 0 0 1 -26.9712 0 2
Refer: 10 305 N 1 0 0 1 -22.9613 0 2
Refer: 18 152 N 1 0 0 1 -26.9712 0 2
Refer: 10 305 N 1 0 0 1 -22.9613 0 2
Refer: 18 152 N 1 0 0 1 -26.9712 0 2
Refer: 10 305 N 1 0 0 1 -22.9613 0 2
Refer: 18 152 N 1 0 0 1 -26.9712 0 2
Refer: 10 305 N 1 0 0 1 -22.9613 0 2
Refer: 18 152 N 1 0 0 1 -26.9712 0 2
Refer: 10 305 N 1 0 0 1 -22.9613 0 2
Refer: 18 152 N 1 0 0 1 -26.9712 0 2
Refer: 10 305 N 1 0 0 1 -22.9613 0 2
Fore
Refer: 26 148 S 1 0 0 1 -27.2156 0 2
Refer: 10 305 N 1 0 0 1 -38.6166 0 2
EndChar

StartChar: uni009B
Encoding: 155 155 24
Width: 668
Flags: W
HStem: -4.22852 134.229<187.936 357.733> 380.432 134.568<153.726 237.645>
VStem: 29.8936 102<160.721 342.62> 265.894 235.625<159.114 349.05>
LayerCount: 2
Back
Fore
SplineSet
131.893554688 252 m 4
 131.893554688 192.957300798 152.636264809 130 203.893554688 130 c 4
 245.965284934 130 265.893554688 194.393646894 265.893554688 252 c 4
 265.893554688 313.818369596 242.258149064 380.663841614 203.084960938 380.431640625 c 4
 153.726441153 380.139065584 131.893554688 314.041108536 131.893554688 252 c 4
302.893554688 -4.228515625 m 0
 150.362319677 -4.228515625 29.8934950065 91.3783635199 29.8935546875 261.385742188 c 0
 29.8935891708 359.614774891 145.306984363 516.187829617 303.260742188 515 c 0
 416.75035924 514.146545608 501.518554688 416.000976562 501.518554688 252 c 0
 501.518554688 88 412.572551511 -4.228515625 302.893554688 -4.228515625 c 0
EndSplineSet
EndChar

StartChar: uni0095
Encoding: 149 149 25
Width: 628
Flags: HW
HStem: 0 162.263<146.877 288.956>
VStem: 30.3984 225.392<165.358 344.32 383.599 479.943> 42.624 213.166<163.427 489.816> 331.332 95.291<171.704 240.931>
LayerCount: 2
Back
Fore
SplineSet
273.990234375 194.104492188 m 0
 273.990234375 179.6953125 278.875 166.734375 302.15625 167.103515625 c 0
 332.44921875 167.583984375 336.01171875 196 336.01171875 240.930664062 c 1
 377.0859375 242.530273438 395.158203125 242.301757812 431.302734375 244.9296875 c 1
 431.302734375 182.9296875 418.78515625 96.5703125 331.157226562 42.951171875 c 0
 292.791992188 19.1953125 222.11328125 -1.173828125 151.556640625 0 c 0
 85.4287109375 1.1005859375 52.7263678746 45.5028691548 48.302734375 97.26171875 c 0
 39.4497070312 200.846817017 35.4497070312 287.846832275 41.03125 415.103515625 c 0
 43.485068064 471.049470017 80.4326171875 511 145.6796875 511 c 0
 217.049804688 511 272.6796875 491.393554688 272.6796875 410 c 0
 272.6796875 351 273.990234375 277.103515625 273.990234375 194.104492188 c 0
EndSplineSet
EndChar

StartChar: uni0094
Encoding: 148 148 26
Width: 562
Flags: HW
HStem: 352.737 162.263<295.387 422>
VStem: 159.72 94<274.07 347.502>
LayerCount: 2
Back
Fore
SplineSet
528 385 m 0
 528.688074289 311.957491521 474 248 411 248 c 0
 290.401408451 248 323.852112676 352 286 352 c 0
 259.09253719 352 252.796719704 327.710277528 253.719726562 274.0703125 c 1
 213.202148438 272.470703125 195.375 272.69921875 159.719726562 270.0703125 c 1
 159.719726562 334.657894737 181.453397693 415.887630197 256 468 c 0
 287.341605658 492.51139923 324.202427953 514.9296875 399.155273438 514.9296875 c 0
 488.867648777 514.9296875 527.169284637 473.184567937 528 385 c 0
EndSplineSet
EndChar

StartChar: f
Encoding: 102 102 27
Width: 492
Flags: HW
HStem: 649.737 162.263<1051.32 1177.94>
VStem: 795.6 214.911<39.7143 717.077> 915.66 94<571.07 644.502>
LayerCount: 2
Back
SplineSet
302.74609375 243.436523438 m 5
 302.74609375 211.984375 311.8359375 90.4140625 322.701171875 73.2021484375 c 5
 333.565429688 55.990234375 307.407226562 19.4736328125 283.680664062 7.7197265625 c 4
 265.016601562 -4.03515625 236.57421875 -12.5859375 213.6484375 -12.5859375 c 4
 190.251953125 -12.5859375 153.91796875 -13.998046875 132.266601562 4.2080078125 c 4
 105.293945312 22.4140625 93.52734375 43.775390625 88.990234375 81.158203125 c 4
 84.4521484375 118.540039062 82.8369140625 159.829101562 85.326171875 194.803710938 c 4
 87.81640625 229.77734375 87.8427734375 268.4453125 87.8349609375 316.939453125 c 4
 87.828125 365.43359375 89.8369140625 409.4140625 88.302734375 465.846679688 c 4
 86.7685546875 522.279296875 75.5224609375 606.177734375 75.5224609375 629.634765625 c 4
 75.5224609375 653.091796875 79.7548828125 666.745117188 94.2099609375 685.759765625 c 4
 107.711914062 703.520507812 135.314453125 761.634765625 295.314453125 761.634765625 c 4
 435.314453125 761.634765625 557.171875 742.934570312 556.342773438 669.00390625 c 4
 556.086914062 646.181640625 565.432617188 626.00390625 573.590820312 613.080078125 c 5
 587.162109375 591.580078125 561.00390625 555.063476562 540.986328125 545.146484375 c 4
 519.096679688 531.5546875 490.247070312 523.00390625 462.057617188 523.00390625 c 4
 443.907226562 523.00390625 408.124023438 521.590820312 386.557617188 540.00390625 c 4
 359.890625 558.00390625 373.314453125 615.671875 343.557617188 615.671875 c 4
 303.2578125 615.671875 296.53125 592.803710938 302.74609375 243.436523438 c 5
91.99609375 280.818359375 m 4
 68.0791015625 281.653320312 48.705078125 273.234375 35.5048828125 265.532226562 c 5
 13.5439453125 252.719726562 -22.037109375 280.135742188 -31.25 300.487304688 c 4
 -44.0693359375 322.837890625 -51.607421875 351.96875 -50.6240234375 380.140625 c 4
 -49.990234375 398.280273438 -50.154296875 434.090820312 -31 455.001953125 c 4
 -12.080078125 481.024414062 9.6787109375 492.038085938 46.123046875 495.334960938 c 4
 82.10546875 498.58984375 133.313476562 496.442382812 156.010742188 495 c 4
 179.946289062 493.478515625 219.438476562 489.20703125 252.965820312 489.345703125 c 4
 288.25 489.491210938 349.57421875 498.184570312 373.6171875 497.344726562 c 4
 397.099609375 496.525390625 412.3203125 493.275390625 429.595703125 477.065429688 c 4
 447.28515625 462.751953125 463.266601562 414.271484375 461.979492188 372.872070312 c 4
 460.413085938 322.237304688 448.1953125 282.315429688 410.25 276.6484375 c 4
 357.657226562 266.448242188 115.912109375 279.982421875 91.99609375 280.818359375 c 4
EndSplineSet
Fore
Refer: 31 156 N 1 0 0 1 0 -1 2
Refer: 29 147 S 1 0 0 1 -86.3998 0 2
EndChar

StartChar: t
Encoding: 116 116 28
Width: 467
Flags: HW
LayerCount: 2
Back
Fore
SplineSet
283.357421875 181 m 5
 283.357421875 181 284.857421875 149 306.857421875 149 c 0
 342.857421875 149 321.857421875 199.559570312 391.857421875 199.559570312 c 0
 434.357421875 199.559570312 460.857421875 186.5 460.857421875 124.5 c 0
 460.857421875 38.5 359.857421875 0 243.857421875 0 c 0
 20.69921875 0 64.453125 203.083007812 64.453125 422 c 0
 64.453125 453.002929688 61.9443359375 522.3671875 61.9443359375 582 c 0
 61.9443359375 633.5 150.461914062 688.850585938 222.961914062 688.850585938 c 0
 276.658203125 688.850585938 278.310546875 664.450195312 278.310546875 618.076171875 c 0xc0
 278.310546875 459 283.357421875 181 283.357421875 181 c 5
EndSplineSet
Refer: 31 156 N 1 0 0 1 -28.6429 0 2
EndChar

StartChar: uni0093
Encoding: 147 147 29
Width: 578
Flags: HW
LayerCount: 2
Back
Fore
SplineSet
396 584 m 0
 406 428 423.178710938 316.736328125 423.178710938 86.267578125 c 0
 423.178710938 65.9140625 406.563557416 34.8963559987 384.158203125 20.78515625 c 0
 365.494140625 9.0302734375 337.051757812 0.4794921875 314.125976562 0.4794921875 c 0
 290.729492188 0.4794921875 256.191263446 1.44705405522 232.744140625 17.2734375 c 0
 205.771484375 35.4794921875 194.005976207 56.8408344955 189.467773438 94.2236328125 c 0
 184.9296875 131.60546875 186.338410917 172.810539913 185.803710938 207.869140625 c 0
 184.153320312 316.080078125 179.749090403 356.095894808 176.221679688 485.846679688 c 0
 171.3315624 665.7226872 184.220703125 765 356.5 765 c 0
 472.5 765 573.5 726.5 573.5 640.5 c 0
 573.5 578.5 547 565.440429688 504.5 565.440429688 c 0
 434.5 565.440429688 455.5 616 419.5 616 c 0
 397.5 616 394.870960633 601.613014118 396 584 c 0
EndSplineSet
EndChar

StartChar: uni009C
Encoding: 156 156 31
Width: 492
Flags: HW
LayerCount: 2
Back
Fore
SplineSet
57.21875 334.663085938 m 4
 4.24861779137 334.663085938 -12.3857589986 385.068482751 -11.6875 431.883789062 c 4
 -10.4894038431 512.211058297 58.9360988949 511.378860402 154.3046875 511.653320312 c 4
 216.680358539 511.832830373 252.717984109 510.467773438 346.986328125 510.467773438 c 4
 400.390201277 510.467773438 443.39446016 477.270669992 442.572265625 424.099609375 c 4
 441.773229393 372.426188864 422.718511339 333.01953125 346.169921875 333.01953125 c 4
 219.783112575 333.01953125 139.697041011 334.663085938 57.21875 334.663085938 c 4
EndSplineSet
EndChar
